<svg width="255" height="40" viewBox="0 0 255 40" fill="none" xmlns="http://www.w3.org/2000/svg">
<path d="M16.0172 14.0479L13.9844 25.9774H17.2356L19.2702 14.0479H16.0172Z" fill="#858FA4"/>
<path d="M11.2582 14.0611L8.07389 22.1967L7.73438 20.9683C7.10637 19.4882 5.32354 17.3625 3.23047 16.0229L6.14221 25.9715L9.58244 25.9656L14.7026 14.0586L11.2582 14.0611Z" fill="#858FA4"/>
<path d="M6.49914 14.915C6.31016 14.1883 5.76243 13.9717 5.08258 13.9458H0.0418113L0 14.1833C3.92273 15.1349 6.51838 17.4278 7.59543 20.1849L6.49914 14.915Z" fill="#858FA4"/>
<path d="M25.859 16.3347C26.9227 16.318 27.6937 16.5505 28.2924 16.7913L28.5859 16.9293L29.0258 14.3437C28.3819 14.102 27.3726 13.8428 26.1132 13.8428C22.9004 13.8428 20.6359 15.4609 20.6184 17.7797C20.5975 19.4931 22.2314 20.4498 23.4657 21.0209C24.7326 21.6063 25.1574 21.9784 25.1515 22.5011C25.1415 23.2996 24.1414 23.6659 23.2073 23.6659C21.9053 23.6659 21.2138 23.4861 20.1459 23.0413L19.7269 22.8506L19.2695 25.5207C20.0305 25.8543 21.4345 26.1411 22.8921 26.1562C26.3097 26.1562 28.5307 24.5573 28.5541 22.0796C28.5684 20.7241 27.7012 19.6897 25.8222 18.8409C24.6849 18.2873 23.9892 17.9194 23.9959 17.3608C23.9959 16.8649 24.5863 16.3347 25.859 16.3347Z" fill="#858FA4"/>
<path d="M37.3672 14.061H34.8551C34.0749 14.061 33.4946 14.2734 33.1517 15.0511L28.3242 25.9839H31.7385C31.7385 25.9839 32.2955 24.5138 32.4217 24.1919C32.7955 24.1919 36.1128 24.1969 36.5853 24.1969C36.6823 24.6134 36.9817 25.9839 36.9817 25.9839H39.9979L37.3672 14.061ZM33.3575 21.7501C33.6251 21.0653 34.6528 18.4161 34.6528 18.4161C34.6352 18.4487 34.9179 17.7262 35.0859 17.2772L35.305 18.3057C35.305 18.3057 35.928 21.1539 36.0585 21.7501H33.3575Z" fill="#858FA4"/>
<path d="M110 19.9999C110 13.4837 104.71 8.12891 98.129 8.12891C95.2903 8.12891 92.7097 9.09665 90.6452 10.7741C92.1935 12.2579 93.4194 14.1289 94 16.2579H93.0323C92.3871 14.387 91.3548 12.7096 89.9355 11.3547C88.5161 12.7096 87.4839 14.387 86.8387 16.2579H85.871C86.5161 14.1289 87.6774 12.2579 89.2258 10.7741C87.1613 9.09665 84.6452 8.12891 81.8065 8.12891C75.2903 8.12891 70 13.4837 70 19.9999C70 26.516 75.2903 31.8708 81.871 31.8708C84.7097 31.8708 87.2903 30.8386 89.2903 29.2257C87.7419 27.7418 86.5806 25.8708 85.9355 23.7418H86.9032C87.5484 25.6128 88.5806 27.2902 90 28.645C91.4194 27.2902 92.5161 25.6128 93.0968 23.7418H94.0645C93.4194 25.8708 92.2581 27.7418 90.7097 29.2257C92.7742 30.9031 95.3548 31.8708 98.1935 31.8708C104.71 31.8708 110 26.516 110 19.9999Z" fill="#858FA4"/>
<path d="M101.289 22.7738L102.128 18.3867H103.16L103.289 18.8383C103.483 18.6448 103.805 18.3867 104.45 18.3867L104.128 19.548C103.805 19.548 103.289 19.4835 102.902 20.7738L102.515 22.7738H101.289Z" fill="#1A1A25"/>
<path d="M85.481 17.29H86.6423L86.3842 18.4513H87.0294L86.8358 19.3546H86.2552L85.9326 21.0965C85.8681 21.4191 85.9326 21.7417 86.5777 21.6126L86.4487 22.5804C86.1906 22.7739 85.8681 22.7739 85.5455 22.7739C85.2874 22.7739 84.3842 22.5804 84.5777 21.4191L85.481 17.29Z" fill="#1A1A25"/>
<path d="M90.6447 20.8383C90.7737 20.1287 91.0963 18.3867 89.0318 18.3867C87.0963 18.3867 86.8382 20.3222 86.8382 20.5803C86.7737 20.8383 86.7737 22.7738 88.8382 22.7738C89.3544 22.7738 90.064 22.7093 90.3866 22.5803L90.5802 21.677C90.3866 21.7416 89.7415 21.8061 89.2253 21.8061C88.7737 21.8061 87.9995 21.8061 88.1286 20.8383H90.6447" fill="#1A1A25"/>
<path d="M84.3235 19.419L84.5815 18.5158C84.0009 18.3223 83.5493 18.3223 83.4202 18.3223C83.2267 18.3223 81.8073 18.3223 81.6138 19.3545C81.4202 20.1932 81.7428 20.5158 82.0009 20.6448C82.4525 20.8384 82.7106 21.0319 82.9686 21.161C83.2912 21.29 83.2267 21.8061 82.8396 21.8061C82.646 21.8061 81.8718 21.8707 81.2912 21.6771L81.0977 22.5803C81.6783 22.7094 82.0654 22.7094 82.517 22.7094C82.8396 22.7094 84.2589 22.7739 84.4525 21.4836C84.5815 20.8384 84.2589 20.5803 84.0654 20.3868C83.8073 20.2577 83.4848 19.9997 83.2267 19.9352C82.9686 19.8061 82.7751 19.419 83.2267 19.29C83.4202 19.3545 84.0009 19.3545 84.3235 19.419Z" fill="#1A1A25"/>
<path d="M76.5796 22.7737L77.6119 17.4834H75.6119L74.1925 20.7092L73.9345 17.4834H72.0635L71.0312 22.7737H72.1925L72.9667 18.9673L73.2893 22.7737H74.3861L76.0635 19.0318L75.3538 22.7737H76.5796Z" fill="#1A1A25"/>
<path d="M77.933 18.5161L77.7394 19.4838C78.062 19.4838 78.8362 19.3548 79.2233 19.3548C79.6104 19.3548 80.1265 19.2903 79.933 19.9354C79.6104 19.9354 77.4814 19.6129 77.1588 21.4838C77.0298 22.3871 77.8039 22.8387 78.3846 22.8387C78.9652 22.8387 79.1588 22.7096 79.3523 22.5806L79.4814 22.8387H80.5781L81.0297 20.4516C81.1588 19.8709 81.3523 18.4516 79.3523 18.4516C79.0943 18.387 78.7072 18.387 77.933 18.5161Z" fill="#1A1A25"/>
<path d="M97.226 18.7094C96.9035 18.5159 96.7099 18.5159 96.3228 18.5159C95.9357 18.5159 95.0325 18.903 94.9035 19.9352C94.7099 21.2256 95.5486 21.8062 96.7744 21.4191L97.097 22.5159C96.7099 22.7094 96.3228 22.774 95.6777 22.774C94.4519 22.774 93.097 21.6772 93.6777 19.4191C94.1293 17.8062 95.5486 17.1611 96.3873 17.2256C97.3551 17.2901 97.7422 17.6127 98.0002 17.9352L97.226 18.7094Z" fill="#1A1A25"/>
<path d="M107.354 18.903C107.096 18.7095 106.967 18.3869 106.45 18.3869C105.805 18.3869 104.773 18.2578 104.192 20.2578C103.805 21.6127 104.58 22.774 105.418 22.774C105.805 22.774 106.192 22.5804 106.45 22.4514L106.58 22.774H107.87L108.902 17.2256H107.676L107.354 18.903Z" fill="#1A1A25"/>
<path d="M98.0658 18.5161L97.8722 19.4838C98.1948 19.4838 98.969 19.3548 99.3561 19.3548C99.7432 19.3548 100.195 19.2903 100.066 19.9354C99.7432 19.9354 97.6142 19.6129 97.2916 21.4838C97.1626 22.3871 97.9368 22.8387 98.5174 22.8387C99.098 22.8387 99.2916 22.7096 99.4851 22.5806L99.6142 22.8387H100.711L101.163 20.4516C101.292 19.8709 101.485 18.4516 99.4851 18.4516C99.2916 18.387 98.84 18.387 98.0658 18.5161Z" fill="#1A1A25"/>
<path d="M88.1289 19.9998H89.6128C89.6773 19.5482 89.5483 19.2256 89.0966 19.2256C88.5805 19.2256 88.2579 19.4837 88.1289 19.9998Z" fill="#858FA4"/>
<path d="M79.7425 20.8384C79.549 20.8384 79.0974 20.7094 78.7103 20.9674C78.3232 21.2255 78.1941 21.6771 78.6458 21.8061C79.0329 21.9352 79.549 21.6771 79.678 21.29L79.7425 20.8384Z" fill="#858FA4"/>
<path d="M106.967 20.7094C107.096 20.3223 107.032 19.8062 106.903 19.6127C106.515 19.0965 105.677 19.4836 105.419 20.4514C105.225 21.0965 105.612 21.5481 105.999 21.5481C106.451 21.5481 106.709 21.2256 106.967 20.7094Z" fill="#858FA4"/>
<path d="M99.9339 20.8384C99.7404 20.8384 99.2888 20.7094 98.9017 20.9674C98.5146 21.2255 98.3856 21.6771 98.8372 21.8061C99.2243 21.9352 99.8049 21.6771 99.8694 21.29L99.9339 20.8384Z" fill="#858FA4"/>
<path d="M90.6445 22.7743L91.4832 18.4517H92.5155L92.6445 18.9033C92.8381 18.7097 93.1607 18.4517 93.8058 18.4517L93.4832 19.613C93.2252 19.613 92.6445 19.5484 92.2574 20.8388L91.8703 22.8388H90.6445" fill="#1A1A25"/>
<path d="M81.8703 8.12891C76.6445 8.12891 72.1929 11.5483 70.6445 16.2579H85.9994C86.6445 14.1289 87.8058 12.2579 89.3542 10.7741C87.2252 9.16116 84.6445 8.12891 81.8703 8.12891Z" fill="#858FA4"/>
<path d="M89.9991 11.4194C88.5798 12.7743 87.5475 14.3872 86.9023 16.3227H93.0959C92.4507 14.4517 91.4185 12.7743 89.9991 11.4194Z" fill="#858FA4"/>
<path d="M98.1284 8.12891C95.2897 8.12891 92.709 9.09665 90.6445 10.7741C92.1929 12.2579 93.3542 14.1289 93.9994 16.2579H109.354C107.87 11.5483 103.419 8.12891 98.1284 8.12891Z" fill="#858FA4"/>
<path d="M162.146 19.7524L159.805 21.8682L161.919 24.2084L164.261 22.0927L162.146 19.7524Z" fill="#858FA4"/>
<path d="M157.482 21.6557L154.359 24.4668L157.172 27.5912L160.295 24.7801L157.482 21.6557Z" fill="#858FA4"/>
<path d="M166.372 19.0076L164.812 20.4136L166.218 21.9735L167.778 20.5675L166.372 19.0076Z" fill="#858FA4"/>
<path d="M157.985 10.0999L155.641 12.21L157.751 14.554L160.095 12.444L157.985 10.0999Z" fill="#858FA4"/>
<path d="M164.373 14.3464L162.816 15.7529L164.224 17.3111L165.781 15.9046L164.373 14.3464Z" fill="#858FA4"/>
<path d="M155.267 16.2433L152.141 19.0571L154.953 22.1815L158.079 19.3677L155.267 16.2433Z" fill="#858FA4"/>
<path d="M153.031 10.919L149.906 13.7314L152.719 16.8559L155.843 14.0434L153.031 10.919Z" fill="#858FA4"/>
<path d="M160.135 14.8138L157.797 16.9243L159.911 19.267L162.25 17.1565L160.135 14.8138Z" fill="#858FA4"/>
<path d="M162.368 9.7127L160.809 11.1187L162.215 12.6785L163.774 11.2726L162.368 9.7127Z" fill="#858FA4"/>
<path d="M164.21 24.4878L161.867 26.5991L163.98 28.9437L166.323 26.8324L164.21 24.4878Z" fill="#858FA4"/>
<path d="M160.102 27.1439L157.048 29.9599L151.892 24.2219L153.326 22.9599L149.716 18.9179L151.158 17.6539L147.494 13.6159L153.212 8.4679L155.028 10.4559L158.094 7.71991L159.906 9.5979L161.114 8.5159C160.844 8.3599 160.574 8.2159 160.3 8.0859C158.558 7.2339 156.602 6.75391 154.542 6.75391C147.308 6.75391 141.406 12.6539 141.406 19.8899C141.406 27.1239 147.308 33.0239 154.542 33.0239C156.892 33.0239 159.106 32.4019 161.016 31.3119C161.646 30.9559 162.22 30.5699 162.744 30.1639L160.102 27.1439Z" fill="#858FA4"/>
<path d="M210.543 14.0435C210.35 13.6572 210.046 13.3387 209.668 13.0994C209.273 12.8579 208.808 12.6887 208.275 12.5883C207.734 12.4903 207.109 12.446 206.384 12.439L203.038 12.4413C202.691 12.446 202.35 12.7167 202.268 13.0528L200.017 22.8573C199.935 23.1887 200.154 23.4664 200.501 23.4664H202.104C202.451 23.4664 202.796 23.1968 202.873 22.8573L203.422 20.4767C203.496 20.1453 203.839 19.8688 204.19 19.8688H204.649C206.608 19.8664 208.125 19.4662 209.215 18.6645C210.311 17.8617 210.851 16.8009 210.851 15.487C210.85 14.9117 210.755 14.4286 210.543 14.0435ZM207.088 17.2467C206.603 17.6014 205.93 17.7788 205.062 17.7788H204.67C204.321 17.7788 204.107 17.5034 204.183 17.1673L204.665 15.0856C204.733 14.7518 205.084 14.4752 205.428 14.4776L205.953 14.4741C206.566 14.4741 207.034 14.5803 207.347 14.7857C207.656 14.9887 207.811 15.3119 207.809 15.7402C207.818 16.3913 207.569 16.892 207.088 17.2467Z" fill="#858FA4"/>
<path d="M218.268 15.4447C217.664 15.104 216.709 14.9336 215.405 14.9336C214.759 14.9336 214.116 14.9838 213.466 15.0841C212.987 15.1576 212.94 15.1716 212.645 15.2358C212.036 15.3689 211.94 15.9768 211.94 15.9768L211.744 16.7832C211.633 17.2978 211.93 17.2779 212.053 17.2348C212.319 17.1554 212.467 17.0737 213.011 16.9524C213.531 16.8345 214.078 16.7458 214.512 16.7517C215.153 16.7517 215.643 16.8193 215.969 16.957C216.292 17.0971 216.453 17.3375 216.453 17.6852L216.425 17.9116L216.193 18.054C215.284 18.1111 214.627 18.1951 213.83 18.3107C213.051 18.4192 212.367 18.6094 211.799 18.8696C211.189 19.138 210.736 19.4986 210.42 19.9572C210.114 20.4181 209.961 20.9771 209.961 21.6329C209.961 22.2502 210.183 22.7602 210.613 23.1546C211.046 23.542 211.618 23.731 212.302 23.731C212.735 23.7287 213.07 23.6949 213.308 23.6377L214.084 23.3705L214.741 23.0064L215.345 22.6073L215.353 22.619L215.293 22.8757L215.289 22.8862V22.8885C215.224 23.2013 215.413 23.458 215.717 23.4883L215.723 23.4953H215.751H216.98H217.211L217.232 23.486C217.552 23.4486 217.852 23.1919 217.922 22.8862L219.09 17.8299L219.15 17.418L219.178 17.0317C219.183 16.3152 218.874 15.7843 218.268 15.4447ZM215.685 21.13L215.435 21.459L214.805 21.7846C214.508 21.9048 214.227 21.9655 213.967 21.9655C213.573 21.9655 213.263 21.9083 213.054 21.7916L212.745 21.1906C212.745 20.8651 212.82 20.6072 212.98 20.4088L213.659 19.9467C213.949 19.8487 214.304 19.7658 214.715 19.7087C215.081 19.6631 215.805 19.5803 215.899 19.578L216.01 19.7728C215.988 19.8837 215.783 20.7425 215.685 21.13Z" fill="#858FA4"/>
<path d="M247.37 15.4517C246.762 15.111 245.808 14.9395 244.507 14.9395C243.862 14.9395 243.218 14.9896 242.57 15.0935C242.09 15.1635 242.042 15.1787 241.745 15.2417C241.137 15.3736 241.043 15.9839 241.043 15.9839L240.847 16.789C240.737 17.3036 241.026 17.2803 241.162 17.2406C241.429 17.1613 241.573 17.0831 242.112 16.9571C242.629 16.8404 243.181 16.754 243.616 16.7564C244.254 16.7564 244.744 16.8252 245.07 16.9629C245.394 17.1029 245.553 17.3457 245.553 17.6899L245.528 17.9151L245.3 18.061C244.381 18.1158 243.723 18.1998 242.934 18.3154C242.157 18.4239 241.471 18.6129 240.902 18.8743C240.294 19.1439 239.835 19.5045 239.522 19.9642C239.213 20.4252 239.062 20.983 239.062 21.6329C239.062 22.2549 239.282 22.7649 239.718 23.1569C240.154 23.5432 240.72 23.7369 241.403 23.7369C241.834 23.7322 242.169 23.7042 242.408 23.6424L243.182 23.3787L243.845 23.0146L244.444 22.6108L244.455 22.6237L244.4 22.8827L244.394 22.8874L244.397 22.892C244.324 23.2048 244.514 23.4638 244.822 23.4918L244.825 23.4977H244.853C245.055 23.4977 245.752 23.4977 246.085 23.4977H246.311L246.336 23.4895C246.652 23.451 246.951 23.1943 247.017 22.885L248.189 17.8358L248.251 17.4215L248.285 17.0341C248.286 16.3199 247.98 15.7913 247.37 15.4517ZM244.792 21.137L244.532 21.4696L243.908 21.7928C243.611 21.9118 243.329 21.9737 243.073 21.9737C242.666 21.9737 242.365 21.9153 242.162 21.7986L241.849 21.2C241.849 20.8733 241.925 20.6177 242.078 20.4158C242.233 20.2256 242.47 20.0693 242.764 19.9549C243.051 19.8569 243.406 19.7775 243.819 19.718C244.183 19.6725 244.904 19.5873 244.997 19.5861L245.111 19.781C245.094 19.8919 244.888 20.7472 244.792 21.137Z" fill="#858FA4"/>
<path d="M239.641 14.0793C239.441 13.6907 239.14 13.3768 238.759 13.1318C238.369 12.8891 237.907 12.7187 237.367 12.6207C236.836 12.5261 236.202 12.4748 235.482 12.4736L232.132 12.476C231.783 12.4818 231.448 12.7525 231.368 13.0851L229.115 22.8943C229.033 23.2268 229.257 23.5022 229.598 23.5022L231.202 23.4999C231.543 23.5022 231.892 23.2292 231.972 22.8931L232.515 20.5114C232.594 20.18 232.939 19.9011 233.285 19.9034H233.744C235.705 19.9034 237.226 19.4997 238.32 18.7003C239.402 17.8917 239.949 16.8333 239.949 15.5181C239.944 14.9452 239.844 14.4609 239.641 14.0793ZM236.186 17.2872C235.703 17.6349 235.028 17.8123 234.165 17.8123H233.766C233.422 17.8158 233.199 17.5358 233.276 17.202L233.761 15.1237C233.832 14.7911 234.18 14.5123 234.527 14.5158L235.046 14.5123C235.662 14.5158 236.124 14.6173 236.439 14.8227C236.753 15.028 236.901 15.3501 236.905 15.7772C236.908 16.4283 236.667 16.9301 236.186 17.2872Z" fill="#858FA4"/>
<path d="M253.378 13.1632C253.451 12.8283 253.241 12.5564 252.897 12.5611H251.462C251.168 12.5611 250.903 12.7793 250.773 13.0477L250.694 13.1714L250.622 13.4888L248.616 22.6072L248.55 22.8872L248.553 22.8942C248.486 23.1941 248.671 23.4205 248.955 23.4637L248.98 23.4975H250.47C250.762 23.4975 251.036 23.2758 251.161 23.0027L251.238 22.886L253.383 13.1644L253.378 13.1632Z" fill="#858FA4"/>
<path d="M229.154 15.0563C228.775 15.061 227.234 15.0563 227.234 15.0563C226.888 15.0563 226.445 15.3352 226.225 15.6678C226.225 15.6678 223.931 19.605 223.708 20.0005L223.442 19.997L222.728 15.6946C222.649 15.3562 222.295 15.0668 221.855 15.0668L220.42 15.0691C220.075 15.0691 219.862 15.3445 219.94 15.6806C219.94 15.6806 221.03 21.8828 221.249 23.3426C221.35 24.1478 221.236 24.2913 221.236 24.2913L219.817 26.7629C219.607 27.0989 219.72 27.3732 220.064 27.3732L221.723 27.3708C222.069 27.3708 222.523 27.0989 222.728 26.7617L229.111 15.9653C229.111 15.9665 229.725 15.0434 229.154 15.0563Z" fill="#858FA4"/>
</svg>
