<svg width="72" height="72" viewBox="0 0 72 72" fill="none" xmlns="http://www.w3.org/2000/svg">
<path d="M60.9406 20.5569C60.7044 20.1555 60.1877 20.0217 59.7862 20.2579C59.385 20.4942 59.2511 21.011 59.4873 21.4123C61.9907 25.6651 63.3138 30.5365 63.3138 35.5C63.3138 50.8365 50.8365 63.3137 35.5001 63.3137C20.1637 63.3137 7.68634 50.8365 7.68634 35.5C7.68634 20.1635 20.1635 7.68634 35.5 7.68634C44.1327 7.68634 52.1321 11.5958 57.4472 18.4121C57.7334 18.7794 58.2633 18.8447 58.6305 18.5586C58.9977 18.2722 59.0634 17.7425 58.7769 17.3752C56.0767 13.9123 52.579 11.0481 48.662 9.09208C44.5533 7.04034 40.1249 6 35.5 6C27.6203 6 20.2122 9.06858 14.6404 14.6404C9.06846 20.2122 6 27.6203 6 35.5C6 43.3797 9.06846 50.7878 14.6404 56.3596C20.2122 61.9314 27.6203 65 35.5 65C43.3797 65 50.7878 61.9314 56.3596 56.3596C61.9315 50.7878 65 43.3797 65 35.5C65 30.2359 63.5963 25.0686 60.9406 20.5569Z" fill="#F53B49"/>
<path d="M42.9319 55.7764C39.7421 55.3034 36.7548 53.8831 34.2476 51.8737C29.0477 47.9927 24.373 43.4423 20.3536 38.3491C20.065 37.9834 19.5348 37.9212 19.1694 38.2095C18.8039 38.4981 18.7414 39.0282 19.0298 39.3937C23.1405 44.6025 27.9211 49.256 33.2389 53.225C36.3753 55.704 40.249 57.4498 44.2838 57.5664C47.0806 57.5664 49.8088 56.4576 51.8115 54.4549L55.1063 51.1603C56.1585 50.1081 56.1585 48.3961 55.1063 47.3439L51.8748 44.1125C51.5455 43.7833 51.0117 43.7833 50.6824 44.1125C50.3532 44.4418 50.3532 44.9756 50.6824 45.3049L53.9138 48.5363C54.3065 48.9131 54.3065 49.5911 53.9138 49.9678L52.8849 50.9967L44.8034 42.9154L45.6743 41.8629C46.0336 41.4071 46.7692 41.3724 47.1701 41.7925L47.9739 42.5963C48.303 42.9255 48.8369 42.9255 49.1663 42.5963C49.4955 42.2669 49.4955 41.7332 49.1662 41.4039L48.3624 40.6002C47.8263 40.064 47.0856 39.7772 46.3272 39.8128C45.57 39.8484 44.8586 40.2039 44.3752 40.7879L40.4153 45.5734C40.3862 45.6085 40.3351 45.6142 40.299 45.5868L38.1729 43.9756C33.9674 40.7886 30.2192 37.0403 27.0324 32.835L25.4212 30.7092C25.3936 30.6729 25.3995 30.6217 25.4346 30.5928L30.22 26.6327C30.804 26.1495 31.1594 25.4379 31.1951 24.6807C31.2308 23.9234 30.9438 23.1816 30.4078 22.6455L23.664 15.9017C23.1543 15.392 22.4765 15.1113 21.7558 15.1113C21.035 15.1113 20.3572 15.392 19.8475 15.9017L16.553 19.1963C14.1667 21.5825 13.0496 24.9981 13.5648 28.3333C14.0017 31.1613 15.0827 33.9074 16.6911 36.2743C16.9528 36.6595 17.4772 36.7594 17.8624 36.4977C18.2475 36.236 18.3475 35.7116 18.0858 35.3265C16.6173 33.1653 15.6302 30.6581 15.2314 28.0758C14.798 25.27 15.7377 22.3962 17.7453 20.3887L18.8186 19.3154L26.7875 27.2843L24.3594 29.2936C23.6266 29.9001 23.5025 30.9691 24.0771 31.7276C28.2526 37.5979 33.4098 42.7558 39.2805 46.9307C40.0328 47.5027 41.1047 47.3851 41.7144 46.6485L43.7236 44.2205L51.6925 52.1894L50.6191 53.2628C48.6114 55.2701 45.7376 56.2099 42.9319 55.7764ZM20.0107 18.1228L21.0396 17.0939C21.4342 16.6992 22.0765 16.6992 22.4711 17.0939L29.2149 23.8377C29.635 24.2381 29.6003 24.9744 29.1445 25.3334L28.0921 26.2043L20.0107 18.1228Z" fill="#F53B49"/>
<path d="M51.3866 35.8337C51.8328 35.9227 52.2877 35.6244 52.3734 35.1642C53.2817 30.422 51.7884 25.5553 48.379 22.1457C44.9693 18.7362 40.1027 17.243 35.3605 18.1514C34.9031 18.2391 34.6034 18.6808 34.691 19.1381C34.7787 19.5956 35.2214 19.895 35.6777 19.8076C39.8707 19.0042 44.1727 20.3243 47.1865 23.3382C50.2005 26.352 51.5203 30.6544 50.7172 34.847C50.6295 35.3043 50.9292 35.746 51.3866 35.8337Z" fill="#F53B49"/>
<path d="M46.6389 35.254C47.0817 35.3563 47.5459 35.0723 47.6454 34.6146C48.3823 31.3104 47.395 27.9107 45.0045 25.52C42.6138 23.1295 39.2139 22.1424 35.9098 22.8791C35.4553 22.9805 35.1691 23.4311 35.2704 23.8856C35.3717 24.3401 35.8223 24.6262 36.2768 24.525C39.0142 23.9144 41.8315 24.7321 43.8118 26.7124C45.7922 28.6927 46.61 31.5097 45.9994 34.2475C45.8982 34.7019 46.1845 35.1526 46.6389 35.254Z" fill="#F53B49"/>
<path d="M41.6489 34.6305C42.0763 34.7847 42.5702 34.5592 42.7245 34.1158C43.3548 32.3285 42.8968 30.3083 41.5575 28.9689C40.2182 27.6296 38.1982 27.1716 36.4106 27.8019C35.9714 27.9568 35.741 28.4384 35.8959 28.8775C36.0508 29.3167 36.5326 29.5473 36.9717 29.3922C38.1504 28.9765 39.4824 29.2784 40.3651 30.1613C41.248 31.0442 41.5499 32.3762 41.1343 33.5548C40.9792 33.994 41.2097 34.4755 41.6489 34.6305Z" fill="#F53B49"/>
</svg>
